HIERARCHY
ROOT Hips
{
	OFFSET 0.000000 0.000000 0.000000
	CHANNELS 6 Xposition Yposition Zposition Xrotation Yrotation Zrotation
	JOINT LeftUpLeg_virtual
	{
		OFFSET 0.000000 0.000000 0.000000
		CHANNELS 3 Xrotation Yrotation Zrotation
		JOINT LeftUpLeg
		{
			OFFSET 13.026900 -6.336304 -1.092800
			CHANNELS 3 Xrotation Yrotation Zrotation
			JOINT LeftLeg
			{
				OFFSET 0.524474 -46.096886 9.782700
				CHANNELS 3 Xrotation Yrotation Zrotation
				JOINT LeftFoot
				{
					OFFSET -0.524474 -53.427422 -12.948200
					CHANNELS 3 Xrotation Yrotation Zrotation
					JOINT LeftToeBase
					{
						OFFSET 0.192200 -14.009700 16.364100
						CHANNELS 3 Xrotation Yrotation Zrotation
						JOINT LeftToe_End
						{
							OFFSET -1.784700 -0.561700 9.474800
							CHANNELS 3 Xrotation Yrotation Zrotation
							End Site
							{
								OFFSET 0 0 0
							}
						}
					}
				}
			}
		}
	}
	JOINT RightUpLeg_virtual
	{
		OFFSET 0.000000 0.000000 0.000000
		CHANNELS 3 Xrotation Yrotation Zrotation
		JOINT RightUpLeg
		{
			OFFSET -12.883000 -6.336304 -1.092800
			CHANNELS 3 Xrotation Yrotation Zrotation
			JOINT RightLeg
			{
				OFFSET -0.524587 -46.096825 9.782800
				CHANNELS 3 Xrotation Yrotation Zrotation
				JOINT RightFoot
				{
					OFFSET 0.524587 -53.427383 -12.948300
					CHANNELS 3 Xrotation Yrotation Zrotation
					JOINT RightToeBase
					{
						OFFSET -0.192200 -14.009700 16.364100
						CHANNELS 3 Xrotation Yrotation Zrotation
						JOINT RightToe_End
						{
							OFFSET 1.784700 -0.561700 9.474800
							CHANNELS 3 Xrotation Yrotation Zrotation
							End Site
							{
								OFFSET 0 0 0
							}
						}
					}
				}
			}
		}
	}
	JOINT Spine_virtual
	{
		OFFSET 0.000000 0.000000 0.000000
		CHANNELS 3 Xrotation Yrotation Zrotation
		JOINT Spine
		{
			OFFSET 0.072000 7.257294 -0.789700
			CHANNELS 3 Xrotation Yrotation Zrotation
			JOINT Spine1
			{
				OFFSET 0.000000 12.508769 -0.658067
				CHANNELS 3 Xrotation Yrotation Zrotation
				JOINT Spine1_split
				{
					OFFSET 0.000000 12.508769 -0.658067
					CHANNELS 3 Xrotation Yrotation Zrotation
					JOINT Spine2
					{
						OFFSET 0.000000 12.508769 -0.658067
						CHANNELS 3 Xrotation Yrotation Zrotation
						JOINT Neck_virtual
						{
							OFFSET 0.000000 0.000000 0.000000
							CHANNELS 3 Xrotation Yrotation Zrotation
							JOINT Neck
							{
								OFFSET 0.000000 14.033295 7.520400
								CHANNELS 3 Xrotation Yrotation Zrotation
								JOINT Head
								{
									OFFSET 0.000000 8.198502 5.703100
									CHANNELS 3 Xrotation Yrotation Zrotation
									JOINT HeadTop_End
									{
										OFFSET 0.000000 17.760803 13.332701
										CHANNELS 3 Xrotation Yrotation Zrotation
										End Site
										{
											OFFSET 0 0 0
										}
									}
								}
							}
						}
						JOINT LeftShoulder_virtual
						{
							OFFSET 0.000000 0.000000 0.000000
							CHANNELS 3 Xrotation Yrotation Zrotation
							JOINT LeftShoulder
							{
								OFFSET 6.292450 5.785301 -0.669000
								CHANNELS 3 Xrotation Yrotation Zrotation
								JOINT LeftShoulder_split
								{
									OFFSET 6.292450 5.785301 -0.669000
									CHANNELS 3 Xrotation Yrotation Zrotation
									JOINT LeftArm
									{
										OFFSET 13.907140 -6.093903 1.965100
										CHANNELS 3 Xrotation Yrotation Zrotation
										JOINT LeftForeArm
										{
											OFFSET 34.140198 0.000000 0.000000
											CHANNELS 3 Xrotation Yrotation Zrotation
											JOINT LeftHand
											{
												OFFSET 40.960209 0.000000 0.000000
												CHANNELS 3 Xrotation Yrotation Zrotation
												End Site
												{
													OFFSET 0 0 0
												}
											}
										}
									}
								}
							}
						}
						JOINT RightShoulder_virtual
						{
							OFFSET 0.000000 0.000000 0.000000
							CHANNELS 3 Xrotation Yrotation Zrotation
							JOINT RightShoulder
							{
								OFFSET -6.292450 5.785301 -0.669000
								CHANNELS 3 Xrotation Yrotation Zrotation
								JOINT RightShoulder_split
								{
									OFFSET -6.292450 5.785301 -0.669000
									CHANNELS 3 Xrotation Yrotation Zrotation
									JOINT RightArm
									{
										OFFSET -13.907140 -6.093903 1.965100
										CHANNELS 3 Xrotation Yrotation Zrotation
										JOINT RightForeArm
										{
											OFFSET -34.140198 0.000000 0.000000
											CHANNELS 3 Xrotation Yrotation Zrotation
											JOINT RightHand
											{
												OFFSET -40.960209 0.000000 0.000000
												CHANNELS 3 Xrotation Yrotation Zrotation
												End Site
												{
													OFFSET 0 0 0
												}
											}
										}
									}
								}
							}
						}
					}
				}
			}
		}
	}
}
MOTION
Frames: 5
Frame Time: 0.03333333
68.047272 116.750565 34.463638 0.000000 0.000000 0.000000 6.950182 82.381835 -3.522053 -31.270703 -4.217944 -2.775271 8.750217 3.510976 2.783084 12.805280 -16.896320 -2.284106 4.791956 0.135392 -0.941051 0.000000 0.000000 0.000000 15.790916 84.249769 -12.163151 13.859507 -12.611322 2.782518 15.715260 11.826026 -4.933586 -7.342734 -27.517879 12.975327 -21.589878 5.382155 -4.200164 0.000000 0.000000 0.000000 10.017890 80.810277 -7.528824 4.792360 11.320663 -2.879726 -2.114225 9.055664 -2.646995 0.181318 -0.217186 -0.017855 0.000000 0.000000 0.000000 -1.547464 11.189452 -2.242684 16.118633 -15.773764 9.259118 -10.257333 -69.119814 -14.519835 0.000000 0.000000 0.000000 -3.816914 10.207439 -2.759234 -6.368566 -10.511805 -14.004135 4.459360 5.972235 -5.169564 45.563410 -58.519387 -12.647466 -11.519046 -58.902110 -5.116748 0.000000 0.000000 0.000000 -2.448460 9.939424 -3.090581 -3.211333 22.338386 14.574603 -7.586908 -0.978969 2.195182 0.047821 41.976942 56.453959 3.521792 28.498503 2.265058 0.000000 0.000000 0.000000 
67.175362 116.635841 34.103302 0.000000 0.000000 0.000000 4.937673 80.506033 -1.579332 -31.010520 -3.701391 -2.339950 8.492783 4.778821 2.747957 12.898305 -15.234508 -2.482219 5.157584 0.207630 -1.202133 0.000000 0.000000 0.000000 11.599197 82.284792 -8.014664 14.947229 -13.199198 2.522965 14.245820 10.709038 -4.881777 -11.822349 -28.496825 10.647120 -16.854697 5.181092 -4.706657 0.000000 0.000000 0.000000 8.575034 79.133472 -6.128587 4.956892 10.689151 -2.856618 -2.303671 8.458131 -2.058753 0.117925 -0.193802 -0.034198 0.000000 0.000000 0.000000 -1.721066 10.556016 -1.673376 16.143205 -14.967729 7.237218 -10.789868 -64.833556 -13.269598 0.000000 0.000000 0.000000 -3.986885 9.600003 -2.283898 -6.231881 -10.180392 -13.926337 3.885278 6.105886 -5.161937 44.405543 -58.798824 -14.031002 -10.967723 -56.749692 -5.154540 0.000000 0.000000 0.000000 -2.705314 9.402547 -2.545197 -3.178027 22.258810 14.690612 -7.870883 -1.270951 2.830008 -0.529022 40.212927 56.548953 3.818004 28.198337 1.888922 0.000000 0.000000 0.000000 
66.303978 116.557495 33.764118 0.000000 0.000000 0.000000 3.335531 78.343253 -0.152877 -30.754938 -3.006145 -1.563252 8.441216 5.974092 2.626535 13.078171 -13.597204 -2.854359 5.474796 0.262538 -1.317445 0.000000 0.000000 0.000000 8.632854 80.225326 -5.177443 16.196994 -13.924303 2.392941 11.836492 9.274202 -4.799439 -15.601969 -30.000404 8.678798 -11.949218 5.056764 -5.348452 0.000000 0.000000 0.000000 6.892320 77.426997 -4.605655 5.181536 10.040915 -2.715350 -2.391097 7.791936 -1.563803 0.074642 -0.172064 -0.017039 0.000000 0.000000 0.000000 -1.841076 9.843456 -1.202270 15.925932 -14.099883 5.141274 -11.518864 -60.373893 -12.111246 0.000000 0.000000 0.000000 -4.109679 8.916499 -1.911321 -6.209762 -10.045259 -13.812832 3.463218 6.393478 -5.202969 42.672512 -59.083916 -15.825314 -10.580237 -55.123875 -5.315433 0.000000 0.000000 0.000000 -2.802227 8.798914 -2.070979 -3.140239 22.237786 14.759585 -7.959289 -1.762416 3.369855 -0.515415 38.929879 56.115898 3.926382 28.769358 1.552514 0.000000 0.000000 0.000000 
65.464577 116.439224 33.489540 0.000000 0.000000 0.000000 2.103434 75.926247 0.862387 -30.535447 -2.118473 -0.528771 8.720836 7.048906 2.432550 13.249324 -12.032533 -3.241931 5.553176 0.289485 -1.260931 0.000000 0.000000 0.000000 6.685447 78.037848 -3.385230 17.263802 -14.497348 2.298649 9.221950 8.148552 -4.782796 -17.643676 -31.567533 8.204025 -8.480586 5.016844 -6.012469 0.000000 0.000000 0.000000 5.164997 75.649495 -3.100685 5.479810 9.324429 -2.456432 -2.376155 7.049935 -1.155084 0.076679 -0.171169 0.007033 0.000000 0.000000 0.000000 -1.905441 9.044928 -0.817407 15.417801 -13.137831 3.009548 -12.196684 -55.624637 -10.996944 0.000000 0.000000 0.000000 -4.184101 8.153470 -1.627768 -6.298080 -10.125762 -13.753694 3.253590 6.785240 -5.148286 40.461542 -59.034343 -18.172813 -10.368505 -54.453632 -5.587314 0.000000 0.000000 0.000000 -2.766617 8.100990 -1.664362 -3.072583 22.211051 14.740889 -8.072613 -2.383066 3.893244 0.475321 38.181854 54.847625 3.913473 30.812247 1.198953 0.000000 0.000000 0.000000 
64.622627 116.252777 33.355522 0.000000 0.000000 0.000000 1.263797 73.258055 1.518854 -30.387365 -1.052708 0.687816 9.347560 7.954919 2.166092 13.346505 -10.618182 -3.507691 5.409693 0.292852 -1.074749 0.000000 0.000000 0.000000 5.212799 75.631395 -2.058530 17.950406 -14.903273 2.218814 7.086058 7.486086 -4.844780 -18.214388 -32.894007 8.955925 -5.996538 5.007879 -6.636689 0.000000 0.000000 0.000000 3.578677 73.773788 -1.748890 5.838617 8.524850 -2.094788 -2.267473 6.259004 -0.818697 0.118156 -0.177433 0.030642 0.000000 0.000000 0.000000 -1.905002 8.184818 -0.493551 14.594938 -12.043846 0.912955 -12.695518 -50.460977 -10.016273 0.000000 0.000000 0.000000 -4.203241 7.323523 -1.395072 -6.452059 -10.323893 -13.739520 3.162041 7.213551 -5.134093 37.828043 -58.423041 -21.168394 -10.394237 -54.920708 -5.977929 0.000000 0.000000 0.000000 -2.655804 7.322351 -1.313191 -2.968123 22.151658 14.620945 -8.181673 -3.037541 4.403423 2.514844 37.875588 52.699069 3.814418 34.511559 0.771941 0.000000 0.000000 0.000000 
